<svg xmlns="http://www.w3.org/2000/svg" width="10" height="10">
    <defs>
        <filter id="1f4zau7l9a">
            <feFlood flood-color="#8499AF" flood-opacity="1" result="floodOut"/>
            <feComposite in="floodOut" in2="SourceGraphic" operator="atop" result="compOut"/>
            <feBlend in="compOut" in2="SourceGraphic"/>
        </filter>
    </defs>
    <g filter="url(#1f4zau7l9a)">
        <path fill-rule="evenodd" d="M9.645 5.792l-4.047 3.87c-.226.217-.523.326-.819.326-.297 0-.593-.109-.82-.326-.453-.432-.453-1.135 0-1.567l3.227-3.088L3.959 1.92c-.453-.431-.453-1.134 0-1.567.452-.432 1.187-.432 1.639 0l4.047 3.871c.452.432.452 1.135 0 1.568zm-5.297 0L1.98 8.055c-.225.217-.522.325-.819.325-.297 0-.593-.108-.82-.325-.452-.433-.452-1.134 0-1.567l1.547-1.481L.341 3.528c-.452-.432-.452-1.134 0-1.567.452-.434 1.186-.434 1.639 0l2.368 2.263c.452.432.452 1.135 0 1.568z"/>
    </g>
</svg>
