<svg xmlns="http://www.w3.org/2000/svg" width="15" height="19">
    <defs>
        <filter id="prefix__a">
            <feFlood flood-color="#CACBCB" flood-opacity="1" result="floodOut"/>
            <feComposite in="floodOut" in2="SourceGraphic" operator="atop" result="compOut"/>
            <feBlend in="compOut" in2="SourceGraphic"/>
        </filter>
    </defs>
    <g filter="url(#prefix__a)">
        <path fill-rule="evenodd" d="M14.015 3.91H.786c-.209 0-.38-.168-.38-.374v-.312c0-.205.171-.373.38-.373h13.229c.209 0 .381.168.381.373v.312c0 .206-.172.374-.381.374zM7.401 1.261c-.904 0-1.636.706-1.636 1.577l-1.022-.005c0-1.415 1.19-2.469 2.658-2.469 1.467 0 2.657 1.054 2.657 2.469l-1.022.005c0-.871-.732-1.577-1.635-1.577zM1.518 4.845h11.766c.213 0 .379.15.369.334l-1.03 12.594c-.018.29-.129.615-.698.615H2.847c-.51 0-.608-.189-.669-.615L1.149 5.179c-.011-.184.155-.334.369-.334zm8.667 12.412l.11.008c.27.019.511-.214.535-.52l.785-10.091c.024-.305-.179-.571-.45-.591l-.109-.008c-.271-.019-.512.215-.535.52l-.785 10.092c-.024.305.178.57.449.59zm-3.333-.537c0 .306.222.556.494.556h.11c.271 0 .493-.25.493-.556V6.6c0-.306-.222-.556-.493-.556h-.11c-.272 0-.494.25-.494.556v10.12zm-2.805.026c.025.305.267.538.538.518l.109-.009c.271-.02.472-.286.447-.592l-.82-10.089c-.025-.305-.267-.538-.537-.517l-.11.008c-.27.02-.471.287-.447.592l.82 10.089z"/>
    </g>
</svg>
